<?xml version="1.0" ?><!DOCTYPE svg  PUBLIC '-//W3C//DTD SVG 1.1//EN'  'http://www.w3.org/Graphics/SVG/1.1/DTD/svg11.dtd'><svg height="2048px" style="shape-rendering:geometricPrecision; text-rendering:geometricPrecision; image-rendering:optimizeQuality; fill-rule:evenodd; clip-rule:evenodd" viewBox="0 0 2048 2048" width="2048px" xml:space="preserve" xmlns="http://www.w3.org/2000/svg" xmlns:xlink="http://www.w3.org/1999/xlink"><defs><style type="text/css">
   <![CDATA[
    .fil1 {fill:none}
    .fil0 {fill:#424242}
   ]]>
  </style></defs><g id="Layer_x0020_1"><path class="fil0" d="M1562.7 644.738l0.0507874 -0.0531496 22.6347 16.5c21.4122,15.6083 26.1189,45.652 10.5071,67.063 -3.34843,4.59331 -7.24607,8.03977 -11.8063,11.3646l-505.176 368.283 0.0425197 0.056693 -25.8248 18.8291c-17.4236,12.7039 -40.5898,11.55 -57.763,-0.969686l-508.365 -370.61 -0.0507874 0.0531496 -22.6347 -16.5c-21.4122,-15.6083 -26.1189,-45.652 -10.5071,-67.063 3.34843,-4.59331 7.24607,-8.03977 11.8063,-11.3646l505.176 -368.283 -0.0425197 -0.056693 25.8248 -18.8291c17.4236,-12.7039 40.5898,-11.55 57.763,0.969686l508.365 370.61zm-537.85 -273.488l-450.905 328.72 450.905 328.72 450.905 -328.72 -450.905 -328.72z"/><path class="fil0" d="M1024.85 1644.75l237.904 -173.438 246.357 -179.597 0 -591.742c0,-26.4981 21.5008,-47.9989 47.9989,-47.9989 26.4981,0 47.9989,21.5008 47.9989,47.9989l-0.0011811 616.058c0,3.4004 -0.360236,6.78189 -1.07126,10.089l7.13741 9.80434 -24.0484 17.5323c-0.596457,0.46063 -1.12677,0.911812 -1.74095,1.35945l-25.8083 18.8138 -0.0425197 -0.0578741 -505.198 368.301c-17.1732,12.5197 -40.3394,13.6736 -57.763,0.969686l-25.8248 -18.8291 0.0425197 -0.056693 -506.424 -369.194c-21.3709,-15.5799 -26.087,-45.5587 -10.5189,-66.9402 15.5752,-21.3933 45.5835,-26.1142 66.9686,-10.5236l504.035 367.452z"/></g><rect class="fil1" height="2048" width="2048"/></svg>